Patient4_TMGait_0pt6_01_left_23_GRF.mot
version=1
nRows=26
nColumns=19
inDegrees=no
endheader
time	F1x	F1y	F1z	M1x	M1y	M1z	F2x	F2y	F2z	M2x	M2y	M2z	EC1x	EC1y	EC1z	EC2x	EC2y	EC2z
28.02	-0.098955	4.0178	3.0565	-1.6143	-1.5889	13.6182	-24.7573	690.2452	-42.0225	246.6128	44.8521	615.9902	-0.0592	0.0182	-0.0073	-0.0462	0.0165	0.9585
28.0318	-0.099565	3.4689	2.0696	-1.3797	-1.0916	9.8701	-20.9527	701.198	-41.2886	252.234	43.235	620.7883	-0.0592	0.0182	-0.0073	-0.0462	0.0165	0.9585
28.0436	-0.12419	3.003	1.2329	-1.176	-0.67999	6.7195	-16.6455	714.9765	-40.371	258.8951	41.1169	627.073	-0.0592	0.0182	-0.0073	-0.0462	0.0165	0.9585
28.0554	-0.15243	2.6541	0.58805	-1.0214	-0.36559	4.3367	-12.062	730.974	-39.4075	266.2681	38.6575	634.5143	-0.0592	0.0182	-0.0073	-0.0462	0.0165	0.9585
28.0671	-0.19714	2.4468	0.14347	-0.92642	-0.15627	2.7377	-7.4798	748.1717	-38.6136	273.8925	36.1335	642.5004	-0.0592	0.0182	-0.0073	-0.0462	0.0165	0.9585
28.0789	-0.23889	2.3441	-0.13362	-0.88103	-0.028785	1.7781	-3.1394	765.2183	-38.1662	281.2085	33.7983	650.1494	-0.0592	0.0182	-0.0073	-0.0462	0.0165	0.9585
28.0907	-0.30128	2.3032	-0.27027	-0.86766	0.017823	1.2946	0.75908	780.6011	-38.206	287.6169	31.8735	656.4554	-0.0592	0.0182	-0.0073	-0.0462	0.0165	0.9585
28.1025	-0.37794	2.2558	-0.30063	-0.85967	-0.0060087	1.0879	4.1256	792.8437	-38.7685	292.564	30.4583	660.3903	-0.0592	0.0182	-0.0073	-0.0462	0.0165	0.9585
28.1143	-0.4899	2.123	-0.24593	-0.82265	-0.10475	0.99589	6.9859	800.7818	-39.783	295.6338	29.5215	661.1317	-0.0592	0.0182	-0.0073	-0.0462	0.0165	0.9585
28.1261	-0.62485	1.8285	-0.13187	-0.72348	-0.26884	0.84881	9.5041	803.7221	-41.1213	296.6078	28.9366	658.1575	-0.0592	0.0182	-0.0073	-0.0462	0.0165	0.9585
28.1379	-0.79345	1.2993	0.032814	-0.52617	-0.49594	0.50703	11.857	801.6219	-42.583	295.5211	28.4975	651.4479	-0.0592	0.0182	-0.0073	-0.0462	0.0165	0.9585
28.1496	-0.95792	0.47258	0.22613	-0.19653	-0.75754	-0.15662	14.2235	795.033	-44.0322	292.6275	28.0562	641.4449	-0.0592	0.0182	-0.0073	-0.0462	0.0165	0.9585
28.1614	-1.0961	-0.70407	0.43818	0.29026	-1.0289	-1.2139	16.6511	784.937	-45.3697	288.3338	27.5296	628.9523	-0.0592	0.0182	-0.0073	-0.0462	0.0165	0.9585
28.1732	-1.1387	-2.2475	0.64523	0.93583	-1.2553	-2.6993	19.1181	772.6293	-46.6033	283.1503	26.9533	615.0267	-0.0592	0.0182	-0.0073	-0.0462	0.0165	0.9585
28.185	-1.0135	-4.0726	0.8186	1.7004	-1.3715	-4.5166	21.5077	759.6124	-47.7553	277.6507	26.3929	600.8995	-0.0592	0.0182	-0.0073	-0.0462	0.0165	0.9585
28.1968	-0.59814	-5.9444	0.89998	2.4816	-1.2712	-6.4104	23.6915	747.3699	-48.8805	272.3944	25.9367	587.756	-0.0592	0.0182	-0.0073	-0.0462	0.0165	0.9585
28.2086	0.2369	-7.4066	0.80458	3.0885	-0.81559	-7.8984	25.5623	737.2297	-49.9936	267.8741	25.6324	576.6518	-0.0592	0.0182	-0.0073	-0.0462	0.0165	0.9585
28.2204	1.6534	-7.7105	0.41708	3.2091	0.17148	-8.2296	27.0694	730.1349	-51.0959	264.4432	25.5003	568.294	-0.0592	0.0182	-0.0073	-0.0462	0.0165	0.9585
28.2321	3.775	-5.7673	-0.39479	2.3905	1.8738	-6.3262	28.2241	726.5886	-52.1458	262.2914	25.5	563.0372	-0.0592	0.0182	-0.0073	-0.0462	0.0165	0.9585
28.2439	6.6607	-0.14862	-1.7766	0.037709	4.4584	-0.77754	29.1056	726.5355	-53.0955	261.4035	25.5697	560.7831	-0.0592	0.0182	-0.0073	-0.0462	0.0165	0.9585
28.2557	10.2109	10.8424	-3.8383	-4.554	7.9922	10.0954	29.8386	729.2967	-53.8927	261.5407	25.6251	560.9486	-0.0592	0.0182	-0.0073	-0.0462	0.0165	0.9585
28.2675	14.0692	28.9458	-6.6344	-12.1079	12.3707	28.0252	30.6014	733.6131	-54.4864	262.2591	25.5651	562.4784	-0.0592	0.0182	-0.0073	-0.0462	0.0165	0.9585
28.2793	17.4868	55.5301	-10.0539	-23.1899	17.1599	54.3974	31.5486	737.7553	-54.7899	262.9531	25.2654	563.9651	-0.0592	0.0182	-0.0073	-0.0462	0.0165	0.9585
28.2911	19.2438	90.99	-13.7589	-37.9536	21.5079	89.6439	32.8019	739.6657	-54.6791	262.9081	24.5921	563.7649	-0.0592	0.0182	-0.0073	-0.0462	0.0165	0.9585
28.3029	17.8182	134.037	-17.1123	-55.8445	24.1523	132.5497	34.3884	737.1658	-53.998	261.3707	23.4231	560.1885	-0.0592	0.0182	-0.0073	-0.0462	0.0165	0.9585
28.3146	12.2541	181.3437	-19.2093	-75.4449	23.7995	179.8684	36.2713	728.146	-52.5783	257.6158	21.6595	551.6334	-0.0592	0.0182	-0.0073	-0.0462	0.0165	0.9585
